<svg width="416" height="403" viewBox="0 0 416 403" fill="none" xmlns="http://www.w3.org/2000/svg">
<path d="M204.8 375.92H282.8L264 402.08H186.48L204.8 375.92ZM294.4 359.92L325.52 316.88L235.84 359.92H294.4ZM257.92 210.96L213.76 352.72L342.4 291.04V167.6L341.52 166.72L257.92 210.96ZM242.56 206.24C243.2 204.214 244.237 202.336 245.611 200.715C246.984 199.095 248.667 197.764 250.56 196.8L329.2 155.2L121.6 109.68L103.92 157.68L104.8 203.28L198.16 349.04L242.56 206.24ZM141.68 44.64L130.56 81.44L236.8 11.04L141.68 44.64ZM108.88 97.84L123.84 48.56L45.36 61.92L0 125.68L90.88 146.64L108.88 97.84ZM265.44 50.8L280.88 0.959961L162.96 79.2L265.44 50.8ZM77.84 298.8C77.84 298.8 127.44 268 127.28 268L99.6 224.8L77.84 298.8ZM398.24 232.64H358.24V290.24L395.68 299.76L416 262.64L398.24 232.64Z" fill="url(#paint0_linear_303_76)"/>
<defs>
<linearGradient id="paint0_linear_303_76" x1="0" y1="201.52" x2="416" y2="201.52" gradientUnits="userSpaceOnUse">
<stop stop-color="#24D392"/>
<stop offset="1" stop-color="#D458C8"/>
</linearGradient>
</defs>
</svg>
